<svg xmlns="http://www.w3.org/2000/svg" viewBox="0 0 67 67">
  <path d="M60.7 50.5v-34A8.4 8.4 0 1 0 50.5 6.3h-34A8.4 8.4 0 1 0 6.3 16.5v34a8.4 8.4 0 1 0 10.2 10.2h34a8.4 8.4 0 1 0 10.2-10.2Zm-2-46.3a4.2 4.2 0 1 1 0 8.4 4.2 4.2 0 0 1 0-8.4ZM4.1 8.4a4.2 4.2 0 1 1 8.4 0 4.2 4.2 0 0 1-8.4 0Zm4.2 54.4a4.2 4.2 0 1 1 0-8.4 4.2 4.2 0 0 1 0 8.4Zm42.1-6.3h-34c-.8-2.9-3.1-5.2-6-6v-34c2.9-.8 5.2-3.1 6-6h34c.8 2.9 3.1 5.2 6 6v34c-2.9.8-5.2 3.1-6 6Zm8.1 6.3a4.2 4.2 0 1 1 0-8.4 4.2 4.2 0 0 1 0 8.4Z"/>
</svg>
