<svg xmlns="http://www.w3.org/2000/svg" viewBox="0 0 67 57">
  <path d="M66.7 21.8 54.8 1.5a2 2 0 0 0-2.7-.7l-7 4-6.5-2.3c-2-.7-4.2-.5-6.1.5l-9.8 5.7-8.6-5a2 2 0 0 0-2.7.7L.2 25.2a2 2 0 0 0 .8 2.6l4.4 2.6-2.2 3.8A5.9 5.9 0 0 0 9.5 43a5.9 5.9 0 0 0 6.8 4 5.9 5.9 0 0 0 6.8 3.9 5.9 5.9 0 0 0 10.7 1.1l.2-.4 7.4 4.2a5.9 5.9 0 0 0 8.8-4.2 5.9 5.9 0 0 0 7.3-5.3 5.9 5.9 0 0 0 5.3-9.1c.7-.5 1.4-1.2 1.8-2 1.6-2.7.7-6.2-1.9-7.9l3.6-3a2 2 0 0 0 .4-2.4ZM34.5 6.4c.8-.4 1.8-.5 2.7-.2l7.3 2.7a2 2 0 0 0 1.7-.2l6.2-3.6 10.1 17.2-3.4 2.8-23.6-13.6a2 2 0 0 0-2 0l-10.8 6.3A2 2 0 0 1 20 17a2 2 0 0 1 .7-2.7l13.8-8ZM7.3 39a2 2 0 0 1-.7-2.7l3.3-5.7a2 2 0 0 1 3.4 2L10 38.2a2 2 0 0 1-2.7.7Zm6.8 4a2 2 0 0 1-.7-2.8l4.6-8a2 2 0 0 1 3.4 2l-4.6 8a2 2 0 0 1-2.7.7Zm6.8 3.8a2 2 0 0 1-.7-2.6l3.3-5.7a2 2 0 0 1 3.4 2L23.6 46a2 2 0 0 1-2.7.7Zm6.8 4A2 2 0 0 1 27 48l2-3.4a2 2 0 0 1 3.3 2l-2 3.3a2 2 0 0 1-2.6.8Zm31.9-9.4a2 2 0 0 1-2.7.7L46.7 36a2 2 0 0 0-2 3.4l8 4.6a2 2 0 0 1-2 3.4l-8-4.6a2 2 0 0 0-1.9 3.4l4.5 2.6a2 2 0 0 1-2 3.4L36 48.1a5.9 5.9 0 0 0-5-8.4 5.9 5.9 0 0 0-5.5-6.2 5.9 5.9 0 0 0-9-5.3 5.9 5.9 0 0 0-8.9-1l-3-1.8 9.3-17.3 5 2.8h-.1a5.9 5.9 0 0 0-2.2 8.1 5.9 5.9 0 0 0 8 2.2l10-5.7 26 15a2 2 0 0 1-2 3.4l-8-4.6a2 2 0 1 0-2 3.4l10.2 5.9a2 2 0 0 1 .8 2.7Z"/>
</svg>
