<svg xmlns="http://www.w3.org/2000/svg" width="68" height="68" fill="none">
  <path fill="#FC2204" d="M40.1 24.7c8.4 0 18.6-6.1 18.6-13.7 0-2-.7-3.7-2.2-5.3 1.5-1 3-2 4.5-2.8A1.5 1.5 0 0 0 59.6.2c-2 1-3.8 2.2-5.6 3.6-1-.5-2-.7-3.2-.7-7.6 0-13.7 10.2-13.7 18.6a3 3 0 0 0 3 3ZM50.8 6.2h.4c-3.2 3-6 6.6-7.8 10.1a1.5 1.5 0 0 0 2.8 1.4c1.8-3.6 4.6-7.1 8-10 1 1 1.4 2 1.4 3.3 0 5.6-8.6 10.6-15.4 10.6 0-6.8 5-15.4 10.6-15.4ZM.6 46a1.5 1.5 0 0 0 2.2-.3S11.8 34 32.5 34a1.5 1.5 0 1 0 0-3C10.3 31 .7 43.3.3 43.8c-.5.7-.4 1.6.3 2.2ZM58.7 24.7c-7 0-8.9 3.6-9 4-.5.7-.2 1.6.6 2 .7.4 1.6.1 2-.6.1-.1 1.4-2.3 6.4-2.3 5.6 0 6.2 4.3 6.2 6.2 0 2.4-2.5 9.3-13.9 9.3-6.7 0-10.6-1-14.1-1.8-2.8-.7-5.5-1.3-9-1.3-8 0-22.8 6.3-27.7 16.3a1.5 1.5 0 0 0 2.7 1.4C7.3 49 21 43.3 28 43.3c3.1 0 5.5.5 8.3 1.2 3.6.9 7.7 1.9 14.8 1.9 13.9 0 17-9.2 17-12.4 0-4.3-2.4-9.3-9.3-9.3Z"/>
  <path fill="#FC2204" d="M32.5 49.5c-16.4 0-20 9.9-20 10.3a1.5 1.5 0 0 0 2.9 1c0-.1 2.9-8.3 17-8.3 14 0 20.1 4 20.1 7.8S50 64.9 48 64.9c-2 0-4.3-1.9-5-2.6a1.5 1.5 0 1 0-2.3 2.2c.4.3 3.7 3.5 7.3 3.5 3.7 0 7.7-2 7.7-7.7 0-5.3-6-10.8-23.1-10.8Z"/>
</svg>
