<svg xmlns="http://www.w3.org/2000/svg" width="56" height="68" fill="none">
  <path fill="#FF2204" d="M55.2 38.7v-1.1c0-3-2.4-5.5-5.4-5.5h-9.3a5.4 5.4 0 0 0-2.6-3.8v-5.1A12.6 12.6 0 0 0 36 .1 2 2 0 0 0 33.3 2v9.9h-2.7v-10A2 2 0 0 0 28 .2a12.6 12.6 0 0 0-2 23v4.4a9.8 9.8 0 0 0-5.2 1.8L15.6 34H2.8a2 2 0 0 0-2 2v24.9c0 1.1.9 2 2 2h9.9c2.4 0 5 1.3 7.4 2.6 2.1 1.1 4.5 2.5 8.4 2.5h17.3c3 0 5.4-2.4 5.4-5.4v-1.1c0-1-.2-1.9-.7-2.7 1.3-1 2-2.5 2-4.2v-1.1c0-1-.2-1.9-.6-2.6 1.2-1 2-2.5 2-4.2v-1.2c0-1-.3-1.8-.7-2.6 1.2-1 2-2.5 2-4.2Zm-4-1.1v1c0 .9-.6 1.5-1.4 1.5h-9.2v-4h9.2c.8 0 1.4.7 1.4 1.5Zm-1.3 8v1c0 .8-.6 1.5-1.4 1.5h-8l.1-1v-3h7.9c.8 0 1.4.6 1.4 1.4Zm-1.3 7.9v1.1c0 .8-.7 1.4-1.5 1.4h-8.5a2 2 0 0 1 0-4h8.5c.8 0 1.5.7 1.5 1.5ZM23.3 12c0-2.7 1.3-5.2 3.4-6.8V12c0 2 1.7 3.8 3.8 3.8h3c2 0 3.8-1.7 3.8-3.8V5.3A8.6 8.6 0 0 1 35.2 20a2 2 0 0 0-1.2 1.8v5.6h-4V22a2 2 0 0 0-1.3-1.8 8.7 8.7 0 0 1-5.4-8ZM22 62c-2.8-1.5-6-3.1-9.3-3.1h-8v-21h11.7c.5 0 1-.1 1.3-.5l5.7-5c1-.6 2-.9 3.2-.9h8.6c.8 0 1.4.6 1.4 1.4v14.2a2 2 0 0 1-4 0v-7c0-1-.8-2-1.8-2-1-.1-2 .6-2.1 1.6-.1.4-1 3.2-6 3.2a2 2 0 0 0 0 4 12 12 0 0 0 6-1.4V47a6 6 0 0 0 4 5.7 6 6 0 0 0 1.5 5.2 6 6 0 0 0-1.2 6h-4.5c-2.8 0-4.5-1-6.5-2Zm25.2.6c0 .8-.6 1.4-1.4 1.4h-7.2a2 2 0 0 1 0-4h7.2c.8 0 1.4.7 1.4 1.5v1Z"/>
</svg>
