<svg xmlns="http://www.w3.org/2000/svg" viewBox="0 0 19 18">
  <path d="M14.7 18c-.2 0-.38-.02-.56-.06-3.44-.69-6.6-2.3-9.14-4.66A17.28 17.28 0 0 1 .05 4.62 2.37 2.37 0 0 1 .8 2.34L3 .3a1.1 1.1 0 0 1 1.64.18L7.39 4.4a.83.83 0 0 1-.06 1.02l-1.38 1.6a10.1 10.1 0 0 0 2.3 3.13c.95.93 2.08 1.67 3.33 2.18l1.71-1.31a.92.92 0 0 1 1.02-.07l4.15 2.6a1.09 1.09 0 0 1 .53.78 1.03 1.03 0 0 1-.3.88l-2.15 2.05a2.62 2.62 0 0 1-1.85.74ZM3.74 1.06 1.55 3.1a1.35 1.35 0 0 0-.4 1.28c.7 3.08 2.3 5.9 4.62 8.13a17.73 17.73 0 0 0 8.6 4.38 1.56 1.56 0 0 0 1.37-.4l2.15-2.05-4.01-2.5-1.84 1.41a.56.56 0 0 1-.5.09c-1.53-.54-2.91-1.4-4.05-2.53A10.37 10.37 0 0 1 4.8 7.08a.52.52 0 0 1 .13-.5l1.49-1.72-2.68-3.8Z"/>
</svg>