<svg xmlns="http://www.w3.org/2000/svg" width="104" height="104" fill="none">
  <path fill="#DADADA" stroke="#DADADA" stroke-width="1.3" d="M83.9 43.7c0-5.7-4.8-10.6-12.1-14 3.9-1.3 7.2-3 9.7-5 2.8-2.2 4.5-5 4.5-8.1 0-4.5-3.5-8.3-8.8-11a48.1 48.1 0 0 0-21-4.3c-8.3 0-15.7 1.7-21 4.3-5.4 2.7-8.9 6.5-8.9 11 0 3.3 2 6.2 5.1 8.6a52.8 52.8 0 0 0-19.5 6.4c-5.2 3.2-8.5 7.4-8.5 12 0 3.3 1.5 6.2 4.1 8.8 2.4 2.3 5.6 4.3 9.5 6C7.5 62.8 1.3 69.3 1.3 77c0 7.4 5.8 13.8 14.9 18.3a82 82 0 0 0 35.8 7.4 82 82 0 0 0 35.8-7.4c9-4.5 14.9-11 14.9-18.3 0-5.1-2.8-9.8-7.6-13.7a50 50 0 0 0-18-8.7c4.2-3 6.8-6.8 6.8-11Zm-52-27.1c0-1 .4-2.1 1.6-3.3 1-1.1 2.8-2.2 5-3.2 4.2-2 10.4-3.3 17.7-3.3 7.3 0 13.4 1.4 17.7 3.3 2.2 1 3.8 2.1 5 3.2 1 1.2 1.6 2.3 1.6 3.3s-.5 2-1.6 3.2a16.6 16.6 0 0 1-5 3.2c-4.3 2-10.4 3.4-17.7 3.4-7.3 0-13.5-1.4-17.8-3.4-2.1-1-3.8-2-5-3.2-1-1.1-1.6-2.2-1.6-3.2Zm-23 27c0-1.4.7-3 2.2-4.5 1.5-1.6 3.6-3.1 6.5-4.4A60.8 60.8 0 0 1 41 29.8a54.7 54.7 0 0 0 19.7 1.8c5.6 1.3 10 3.3 13 5.4 3.1 2.2 4.6 4.5 4.6 6.7 0 1.5-.7 3.1-2.3 4.8-1.6 1.6-4 3.1-7 4.5a64 64 0 0 1-25.4 4.6A64 64 0 0 1 18.3 53c-3-1.4-5.4-3-7-4.5-1.6-1.7-2.4-3.3-2.4-4.8ZM52 97.3A79.6 79.6 0 0 1 20 91c-4-2-7.4-4.1-9.7-6.5-2.3-2.4-3.5-5-3.5-7.6 0-3.1 1.8-6.2 5-9C15 65.3 19.6 63 25 61a79.3 79.3 0 0 0 44.7-2.5c8 1.6 14.9 4.3 19.7 7.5 5 3.3 7.7 7 7.7 11 0 2.6-1.2 5.2-3.5 7.6A31.3 31.3 0 0 1 84 91a79.6 79.6 0 0 1-32 6Z"/>
</svg>
