<svg xmlns="http://www.w3.org/2000/svg" width="100" height="100" fill="none">
  <path fill="#DADADA" d="M74 53c4-3 7-7 7-11 0-6-5-11-13-14 9-3 15-8 15-13C83 6 71 0 54 0 38 0 25 6 25 15c0 3 2 6 6 9-17 2-29 9-29 18 0 6 6 11 15 14C6 61 0 67 0 75c0 14 22 25 50 25s50-11 50-25c0-10-11-18-26-22ZM29 15c0-5 10-11 25-11s25 6 25 11-10 10-25 10-25-5-25-10ZM6 42c0-7 13-14 33-15a54 54 0 0 0 20 2c11 3 18 8 18 13 0 7-14 14-35 14-22 0-36-7-36-14Zm44 54C25 96 4 86 4 75c0-7 8-13 19-17a79 79 0 0 0 45-2c16 3 28 11 28 19 0 11-21 21-46 21Z"/>
</svg>
