<svg width="120" height="86" viewBox="0 0 120 86" fill="none" xmlns="http://www.w3.org/2000/svg">
<path class="water-path-1" d="M1.63576 46.5579C8.7345 52.6467 16.7801 59.5483 32.3429 59.5483C47.9061 59.5481 55.9522 52.6467 63.0511 46.5579C69.7646 40.7998 75.5625 35.8266 87.6558 35.8266C99.7493 35.8266 105.547 40.7998 112.261 46.5579C114.226 48.2433 117.185 48.0169 118.87 46.0519C120.556 44.0867 120.329 41.1274 118.364 39.4421C111.265 33.3532 103.219 26.4516 87.6558 26.4516C72.0926 26.4516 64.0465 33.353 56.9475 39.4421C50.2341 45.2002 44.4361 50.1734 32.3429 50.1734C20.2498 50.1734 14.4526 45.2004 7.73958 39.4421C5.77458 37.7567 2.81536 37.9828 1.12974 39.9481C-0.555885 41.9131 -0.329245 44.8725 1.63576 46.5579Z" fill="#DADADA"/>
<path class="water-path-2" d="M1.63576 20.9188C8.73427 27.0079 16.7799 33.9093 32.3429 33.9093C47.9061 33.9093 55.9522 27.0079 63.0511 20.9188C69.7646 15.1607 75.5623 10.1875 87.6558 10.1875C99.7489 10.1875 105.547 15.1605 112.261 20.9188C114.226 22.6047 117.185 22.3776 118.87 20.4123C120.556 18.4473 120.329 15.4877 118.364 13.8025C111.265 7.71344 103.219 0.8125 87.6558 0.8125C72.0926 0.8125 64.0465 7.7139 56.9476 13.803C50.2341 19.5611 44.4361 24.5343 32.3429 24.5343C20.2501 24.5343 14.4526 19.5613 7.73958 13.803C5.77458 12.1173 2.81513 12.3438 1.12974 14.309C-0.555885 16.274 -0.329245 19.2334 1.63576 20.9188Z" fill="#DADADA"/>
<path class="water-path-3" d="M118.364 65.0812C111.265 58.9924 103.219 52.0907 87.6556 52.0907C72.0924 52.0907 64.0463 58.9921 56.9474 65.0812C50.2339 70.8393 44.436 75.8125 32.3427 75.8125C20.2503 75.8125 14.4526 70.8395 7.73962 65.0816L7.73915 65.0812C5.77415 63.3963 2.81517 63.6227 1.12954 65.5874C-0.555846 67.5524 -0.329206 70.5119 1.63579 72.1973C8.73454 78.2863 16.7804 85.1875 32.3427 85.1875C47.9059 85.1875 55.952 78.2861 63.051 72.197C69.7644 66.4389 75.5624 61.4657 87.6556 61.4657C99.7492 61.4657 105.547 66.4389 112.26 72.197C114.226 73.8824 117.185 73.656 118.87 71.691C120.556 69.7258 120.329 66.7666 118.364 65.0812Z" fill="#DADADA"/>
</svg>
