<svg xmlns="http://www.w3.org/2000/svg" fill="none" viewBox="0 0 120 86">
  <path fill="#DADADA" d="M1.64 46.56c7.1 6.09 15.14 12.99 30.7 12.99 15.57 0 23.61-6.9 30.71-13 6.71-5.75 12.51-10.72 24.6-10.72 12.1 0 17.9 4.97 24.61 10.73a4.69 4.69 0 1 0 6.1-7.12c-7.1-6.09-15.14-12.99-30.7-12.99-15.57 0-23.61 6.9-30.71 13-6.72 5.75-12.51 10.72-24.6 10.72-12.1 0-17.9-4.97-24.61-10.73a4.69 4.69 0 1 0-6.1 7.12Z"/>
  <path fill="#DADADA" d="M1.64 20.92C8.74 27 16.78 33.9 32.34 33.9c15.57 0 23.61-6.9 30.71-13 6.71-5.75 12.51-10.72 24.6-10.72 12.1 0 17.9 4.97 24.61 10.73a4.69 4.69 0 1 0 6.1-7.12C111.26 7.71 103.22.81 87.66.81c-15.57 0-23.61 6.9-30.71 13-6.72 5.75-12.51 10.72-24.6 10.72-12.1 0-17.9-4.97-24.61-10.73a4.69 4.69 0 1 0-6.1 7.12ZM118.36 65.08c-7.1-6.09-15.14-12.99-30.7-12.99-15.57 0-23.61 6.9-30.71 13-6.72 5.75-12.51 10.72-24.6 10.72-12.1 0-17.9-4.97-24.61-10.73a4.69 4.69 0 0 0-6.1 7.12c7.1 6.09 15.14 12.99 30.7 12.99 15.57 0 23.61-6.9 30.71-13 6.71-5.75 12.51-10.72 24.6-10.72 12.1 0 17.9 4.97 24.61 10.73a4.69 4.69 0 0 0 6.1-7.12Z"/>
</svg>
