<svg xmlns="http://www.w3.org/2000/svg" width="80" height="80" fill="none">
  <path fill="#FFC800" stroke="#fff" d="m74.3 35.7.2.1a6.2 6.2 0 0 1-.1 8.5l-6.9 6.9-.1.1V61.2a6.2 6.2 0 0 1-6.2 6.2H51.3l-.1.1-6.9 6.9a6.2 6.2 0 0 1-8.7 0l-6.8-6.9-.1-.1H18.8a6.2 6.2 0 0 1-6.2-6.2V51.3l-.1-.1-6.9-6.9A6.2 6.2 0 0 1 3.8 40c0-.8.2-1.6.6-2.4l-.5-.2.5.2c.3-.7.8-1.4 1.4-2l6.7-6.8.1-.1V18.8a6.2 6.2 0 0 1 6.2-6.2H28.7l.1-.1 6.9-6.7a6.2 6.2 0 0 1 8.6 0l6.9 6.7.1.1H61.2a6.2 6.2 0 0 1 6.2 6.2V28.7l.1.1 6.8 6.9Zm-13.1 26h.5V49l8.7-8.6.3-.4-.3-.4-8.7-8.6V18.3H49l-8.6-8.7-.4-.3-.4.3-8.6 8.7H18.3V31l-8.7 8.6-.3.4.3.4 8.7 8.6v12.7H31l8.6 8.7.4.3.4-.3 8.6-8.7h12.2Z"/>
  <path fill="#FFC800" stroke="#fff" d="m36.3 42.8.4.3.3-.3 14-14 4 4-18.3 18.4L25 39.5l4-4 7.3 7.3Z"/>
</svg>
