<svg xmlns="http://www.w3.org/2000/svg" width="47" height="48" fill="none">
  <path fill="#FF2204" d="M34.9 26.9A12.5 12.5 0 0 0 40 16.8c0-2-1-3.8-2-5.4a12.8 12.8 0 0 0-4.5-4.3c-2-1-4.4-1-6.5-.5-2.3.5-4.7.9-6.8 2a18 18 0 0 0-4.9 4.4c-1.4 1.6-2.7 3.4-4.4 4.7-2.2 1.5-4.2 3-6.8 3.6-.8.2-.6 1.5.2 1.5a13 13 0 0 0 6.5-1.7c1.7-1 3.3-2.3 4.6-3.8 2.4-2.5 4.7-6 8.1-7.1l3.1-.7 3.5-.8c2-.2 3.8 1.2 5 2.8 1.3 1.4 2 3 2 4.9 0 1.7-.6 3.5-1.4 5-1.9 3.3-5.5 4.4-8.7 6a32 32 0 0 1-12.6 3.7c-.4 0-.8.4-1 .8-.8 2.5 1.5 4 3.3 5l2.7 1.5a37 37 0 0 1 7.8 8.6l.3.4a23 23 0 0 0 2.5-.6l-1-1.5c-1.3-2.1-2.5-4.3-4.1-6.1a20.4 20.4 0 0 0-5.6-4.3l-2.6-1.4a2 2 0 0 1-.4-.4c4.2-.5 8.2-2.1 12.2-3.6 2-.7 4.4-1.3 6.3-2.6Z"/>
  <path fill="#FF2204" d="M11.6 25.8c-.7.4-1.4.8-2.1 1-.9.3-1.8.2-2.6 0l-6-.6-.8-.1.1 1.2 3 .5c1.3.3 2.6.4 4 .6 1 .2 2 .1 3.1-.1 2.3-.5 4.4-1.6 6.7-2 2.3-.6 4.7-.7 7-1 3.8-.4 7.8-1.1 10.6-3.8 2.8-2.8 1.5-7-1.2-9.2a5.8 5.8 0 0 0-4.4-1.5c-1.5.1-3 .6-4.3 1.2-2.8 1.4-4.9 4-7.1 6-2.5 2.4-5 4.5-8.4 5.2-3 .7-6.1.7-9.2.6V25.5l4 .7c2.5.2 5-.2 7.4-1.1a19 19 0 0 0 5-3.2c1.5-1.2 2.7-2.6 4-4 2.5-2.5 5.4-5.4 9.1-5.6 4-.2 7.3 5 4.4 8.2-1.7 2-4.7 2.9-7.2 3.2-3.4.5-7-.3-10.3.3-1.8.2-3.3.8-4.8 1.8Z"/>
  <path fill="#FF2204" d="M29.1 20.2c-2.9 1.5-6.3 1.4-9.4 1.6-.3 0-.4.6 0 .6 2.1.3 4.3.5 6.5.1 1.9-.3 4-1 5.5-2.2a4.5 4.5 0 0 0 1-5c-.7-1.4-2.8-1.7-4.2-1.8-2.1 0-3.4 1.4-5 2.7-.8.6-3.6 2.6-2 3.8.5.3 1.2.3 1.8.3 1 0 2-.1 3-.4 1-.2 3.6-1.2 3.4-2.7 0-.4-.5-.6-.7-.2-.6 1.2-1.8 1.6-3 1.9l-2.5.3h-.7c.3-.4.9-.6 1.2-.8l1.5-1.1c1.1-.9 2.2-1.5 3.6-1.6 1-.1 2.2 0 2.2 1.2.1 1.5-1 2.6-2.2 3.3ZM2.2 30.2a19.2 19.2 0 0 0 9.8 1.4c1.3-.2 2.6-.8 3.8-1.4a31 31 0 0 1 3.5-1.3c1.2-.3 2.3-.6 3.4-1.2.3-.2.2-.6 0-.8-1-.3-2.3 0-3.2.3-1.2.3-2.5.8-3.7 1-1.2.2-2.4.5-3.5 1-1.2.3-2 .8-3.2.9-2.3 0-4.5-.7-6.7-1.2l-2-.4.3 1.1 1.5.6ZM5 34c1 0 2.1.2 3.2.4 1.2.3 2 .9 3 1.8.7.9 1.6 1.7 2.3 2.7.8 1 1.7 1.6 2.8 2 1 .5 2 .8 3 1.4.9.6 1.7 1.5 2.3 2.4.3.4 1 .1.9-.4a7.6 7.6 0 0 0-4.4-4.5c-1.1-.4-2.6-.6-3.3-1.7l-2.4-3.3c-1.6-2.2-4-2.5-6.5-2.4-1.4 0-2.7-.2-4-.4l-.6-.1.5 1.3 3.2.7Z"/>
  <path fill="#FF2204" d="M33.2 45.7a18 18 0 0 1-2.7-4.8c-.7-2-1.2-4.1-2.6-5.7a5.4 5.4 0 0 0-2.4-1.5 45 45 0 0 0 8.2-2 16 16 0 0 0 8.7-8.4c1-2 1.3-4 1.5-6.3a12.7 12.7 0 0 0-9.5-12.7c-3-.8-6.4-.4-9.5.3a22 22 0 0 0-9.8 5.2c-1.3 1.2-2.5 2.5-4 3.6A27.7 27.7 0 0 1 1.5 18l-.8.2c-.2.5-.3 1-.3 1.6l2.4-.4A27.2 27.2 0 0 0 14.3 13c1.8-1.7 3-4 5-5.2 2.1-1.3 4.7-1.9 7.1-2.3 2.1-.3 4.2-.4 6.4-.1 3.8.6 6.9 3 8.7 6.4a9.5 9.5 0 0 1 .1 8.3 26.8 26.8 0 0 1-4.5 7.4 16 16 0 0 1-7 4.2c-2.7.8-5.7 1.2-8.5 1.2-.7 0-.9 1.2-.1 1.3l1.6.4c.8.3 1.2.7 1.8 1.2.8.5 1.4 1 1.8 1.9l1.3 2.9 1.6 3.1c.5 1 1 1.9 1.7 2.8l1.9-.8ZM6.6 40.6c1.1 1.1 2.3 2.1 3.6 3h1.6l2.5.3c.3 0 .6.2 1 .4l3.4 2 2.6 1.4 2.2.1h.4l-.5-.5c-1-1-2.2-1.6-3.4-2.2l-3.4-2c-1.2-.7-2.6-1.2-3.8-2-.8-.5-1.3-1.5-2-2.2a21 21 0 0 0-3.3-2.5 9.8 9.8 0 0 0-4.8-1.3l.9 1.5c.3.1.7.3 1 .6L6 38.4 9.2 41l.8.7-1.4-.3c-.7-.3-1.2-.7-2-.7Z"/>
  <path fill="#FF2204" d="M35.2 44.6a8.2 8.2 0 0 1-1.4-2.7l-1-4-.3-1.8c0-.3 0-.3.3-.5.9-.5 2-.7 2.9-1.2 1.2-.6 2.2-1.6 3.2-2.5 1.3-1.2 2.6-2.4 3.5-3.8l.1-.1c.6-.7 1.2-1.5 2-2.2.7-.7 1-2 1.5-3l.8-2.2c-.3-2-.8-3.9-1.5-5.6v.5c-.2 1-.3 2-.3 3.1 0 .5.2 1 0 1.6l-.3 1.8c-.3 1-.9 1.8-1.2 2.7l-.3.8s-.2 0-.3.2a9.1 9.1 0 0 1-2.5 3.5c-1 1-2.2 2.2-3.5 2.9-1.3.6-2.7 1-4 1.4-1 .3-1.8.8-2.2 1.7-.5 1.3.5 2.2 1 3.4L33 43c.3.7.7 1.5 1.3 2.1l1-.5ZM1.2 16.3l.7-.2 3-1.5c1-.6 2.2-1 3.4-1.6 1-.4 2-1 3-1.6.9-.6 1.7-1.5 2.5-2.3 1.5-1.6 3-3 4.8-4.2 3.6-2.2 8-2.4 12-2.6 1.2 0 2.3 0 3.3.2-1-.5-2-1-3.2-1.3A25.2 25.2 0 0 0 14 5.7C12.2 7 10.7 9 8.7 10l-6.2 3.1c-.5 1-1 2-1.3 3.1Z"/>
  <path fill="#FF2204" d="M47 25.4V24l-.2.1c-1.1 1.4-2.1 2.9-3.4 4.2l-3.7 4.2-1.8 2c-.5.6-1.2 1-1.7 1.4a4.8 4.8 0 0 0-1.3 4.2c.2 1.4.9 2.6 1.8 3.6l1.5-1.1c-.4-.6-.5-1.1-.5-1.9l.1-2v-.5l.5-.5 1.5-1.3 2-2.3c1.2-1.4 2.5-2.7 3.4-4.5.7-1.3 1.1-2.8 1.8-4.2ZM44.3 33.8c-.8 1-1.9 1.6-2.6 2.6-.8 1-1 2.2-1.5 3.4l-.3 1.2c1-1 2-2.2 2.9-3.4l.2-.5 1.2-1.9.6-.9c.2-.1.2-.3 0-.4 0-.2-.3-.3-.5 0ZM4.7 9.6l2-1.2c1.8-1 3.6-1.8 5.4-2.9 1.3-.8 2.5-2 3.7-2.9 1.5-1 3-1.3 4.7-1.7L25 .1 23.5 0a23 23 0 0 0-11.1 3l-3 1.8a24 24 0 0 0-4.7 4.8Z"/>
</svg>
