<svg xmlns="http://www.w3.org/2000/svg" fill="none" viewBox="0 0 82 59">
  <g clip-path="url(#a)">
    <path fill="#FF2204" d="M6.6 40h-.5v-.3l.8-.5v-.5l.3-.1 2.4-.6.3-.1c.2 0 .3-.2.3-.4s-.2-.4-.3-.4l-1.1.2-.5-.1.8-.5-.5-.4 1-.4c0-.4-.3-.5-.4-.7-.3-.2-.6.2-1-.1.5-.3.9-.6 1.3-.7l3.6-1 3-.9.5-.2c-.1-.2-.3-.2-.4-.1l-2.7.6-3.6.8c-.5.1-1 .3-1.6.2l-1 .2h-.6l.1-.6.1-.5.1-.3c.1-.5 0-.7-.4-1h-.3c0-.8 0-.8-.7-1.8-.4 0-1 .1-1.1-.6l1-.3c.4-.1.6-.2.8-.5l.5-.2 5.5-1.6 2-.8c.3 0 .5-.1.6-.4h-.5l-1.8.4-2.4.7-.4-.3c-.4.2-1 0-1.5.2s-1 .2-1.6.3l-1.5.3-.8-.6.4-.4c.1-.5.5-.5.8-.6l2.8-.7.5-.2 1.7-.5 3.6-1c.4 0 .7-.2 1-.3.2 0 .4 0 .6-.2.8-.5 1.8-.7 2.7-1l3.4-1.3.4-.2.3-.4c.2 0 .4-.2.4.2.4-.1.7-.2.8-.5l.4-.2c.7-.1 1.4-.4 2-.7 1.2-.3 2.2-1 3.4-1.2l.7-.3.5-.2c.5 0 1-.3 1.4-.6l.6-.4 3.8-1.4c.4-.4 1-.4 1.5-.6.4 0 .7-.3 1.2-.4l.2-.1c.3-.3.6-.4 1-.4h.4c.4-.5 1-.5 1.5-.7l2-.7 3.4-1.1 3-1c.6-.1 1.1-.2 1.6-.5.3-.2.7-.2 1.1-.3l2.4-.7c.7-.2 1.4-.2 2-.6h.5l1-.2.7-.1c.7-.4 1.5-.3 2.2-.5l1.1-.4a2 2 0 0 1 1-.1c.7 0 1.4-.1 2-.4a4 4 0 0 1 1.6-.1h.5c.5.1.5.1.9-.3.6 0 1 .5 1.4 1l.1.4.3.6v.3l.1.3c.2.5 0 .8-.4 1l-.3.1c0 .3.3.4.4.6v.9l.9 1c0 .6.1 1.2-.2 1.6.6.9.6.9 1 1l-.2.6.4.3-.6.8.2.4v.5c.6.1 1.2 0 1.8.4.3.4.4 1 .5 1.6l-.1.4v.2c-.1.1.2.2 0 .4v.3l.3.3c.1.1.2.3.1.5 0 .3.1.5.3.7 0 .2.3.2.4.3l.8 2.8.7.2v.2l-.5.6c0 .3.3.3.4.5l-.1.4c0 .5 0 .6.5.8l-.1.4c-.3.2-.1.4-.1.7l.7.5c0 .4 0 .7.2 1.1l.4 1.3.2 1.2-.3.5.3.6-.2.1-2 .6-.4.1c-.7.5-1.6.4-2.3.8V35l1-.4c-.6 0-1.2-.2-1.7.1H73l-.5.2-.1.2c0 .2.1.2.3.2-.1.2-.2.4 0 .6h.3l-.8.4c-.3 0-.5.1-.7.3l-1.3.7a947 947 0 0 0-7.1 2.1l-5 1.4-6.3 2-3.6 1-2 .6-1.4.4-.9.2-.9.4h-.5c-.4 0-.8.2-1.1.4l-1.3.5h-.9c0 .2-.2.3-.5.4l-3.5 1-2.2.6-3.4 1-3.6 1-3.4 1.1-3 1-1.8.4-2.2.5-1.1.3c-.2-.3 0-.4 0-.6 0-.3 0-.4-.3-.5h-.5l-.4-1.2c-.5 0-.8-.4-1.2-.5l-.2-.1c-.1-.5-.6-.5-.8-.7l-.4-.2.3-.5-.1-.6 1.5-1c-.3-.6-.3-.7-.8-.6l-2.1.3-.7-.4H8v-.2c.2-.1.4-.2.4-.4 0-.4 0-.6-.2-.9l-.6-.5c-.4 0-.6-.3-.8-.6V44l-.2-1.5L8 42l1.2-.5.4-.2.7-.3 2.3-.8h-.2c-.4 0-.4 0-.6-.3l-.8.2-.4-.4-3.5.7a88 88 0 0 1-.5-.5Zm66.8-5h-.1.1ZM72 8v-.1Z"/>
  </g>
  <g fill="#FF2204" clip-path="url(#b)">
    <path d="M20.3 24.4c-.8.3-1.2 1.1-1 1.9l1 2.9c.3.6 1 1 1.6 1l5.5-.8-4.8 2.7c-.6.4-.9 1.1-.6 1.8l2.1 6.3c.2.5.7 1 1.4 1h.9l-.8.6c-.4.3-.6 1-.4 1.5l.7 2c.2.8 1 1.2 1.8 1L43.1 41l-7.5-21.8-15.3 5.2ZM46 40l4.4-1.5a1.4 1.4 0 0 0 .9-1.9l-1.4-4.2a2.8 2.8 0 0 1 2.3-3.7A83 83 0 0 0 64.7 27a5.2 5.2 0 0 0-3.4-10c-.4.2-1.5.6-11 6.3a2.8 2.8 0 0 1-4-1.5l-1.5-4.2c-.3-.8-1-1.2-1.8-.9l-4.5 1.5L46 40Zm16.2-19.9a2 2 0 1 1 1.3 4 2 2 0 0 1-1.3-4Z"/>
  </g>
  <defs>
    <clipPath id="a">
      <path fill="#fff" d="M0 0h73.5v33.1H0z" transform="rotate(160.3 37.6 23.7)"/>
    </clipPath>
    <clipPath id="b">
      <path fill="#fff" d="M0 0h42.9v42.9H0z" transform="rotate(-153.8 32.3 23.1)"/>
    </clipPath>
  </defs>
</svg>
