<svg xmlns="http://www.w3.org/2000/svg" width="162" height="114" fill="none">
  <path fill="#D2DD26" d="M162 0H0v114h162V0Z"/>
  <path fill="#656867" d="M26.4 84.6c-.2-1-.8-3-3.7-3-1.6 0-4.2 1.2-4.2 6 0 2.9 1.3 5.6 4.2 5.6 2 0 3.3-1.1 3.7-3.2H30c-.7 3.6-3 6.1-7.2 6.1-4.5 0-7.7-3-7.7-8.6 0-5.8 3.4-8.7 7.7-8.7 5 0 7 3.4 7.2 5.8h-3.5ZM34.2 88.1l4.1-4.6h4L38 88.2l4.5 7.5h-3.9l-3-5.3-1.3 1.4v3.9H31V83.5h3.2V88Z"/>
  <path fill="#656867" d="M54.3 89.6c0 4.4-3 6.4-6.3 6.4s-6.3-2-6.3-6.4 3-6.5 6.3-6.5 6.3 2 6.3 6.5Zm-9.3 0c0 1.5.5 3.7 3 3.7s3-2.1 3-3.7-.5-3.8-3-3.8-3 2.2-3 3.8ZM66.6 83.5v12.2h-3.3V86h-3.5v3.8c0 4.7-1.4 6.2-3.7 6.2a7 7 0 0 1-2-.3v-2.4l1 .1c1 0 1.5-.5 1.5-4.2v-5.7h10ZM71.5 88.1l4-4.6h4l-4.3 4.7 4.5 7.5h-3.9l-3-5.3-1.3 1.4v3.9h-3.3V83.5h3.3V88Z"/>
  <path fill="#656867" d="M91.6 89.6c0 4.4-3 6.4-6.3 6.4s-6.4-2-6.4-6.4 3-6.5 6.4-6.5c3.3 0 6.3 2 6.3 6.5Zm-9.3 0c0 1.5.5 3.7 3 3.7s3-2.1 3-3.7-.5-3.8-3-3.8-3 2.2-3 3.8ZM92.7 83.5h5.6c2.7 0 4.8 1 4.8 3.1 0 1.4-1 2.3-2.4 2.6 1.3.3 2.7 1.1 2.7 3.1 0 2.3-1.7 3.4-4.5 3.4h-6.2V83.5Zm3.2 5H98c1.1 0 1.9-.5 1.9-1.5s-.8-1.3-1.8-1.3h-2.2v2.7Zm0 5h2.4c1.2 0 2-.4 2-1.6 0-1-.8-1.6-2-1.6h-2.4v3.2ZM116.5 89.6c0 4.4-3 6.4-6.4 6.4-3.3 0-6.3-2-6.3-6.4s3-6.5 6.3-6.5c3.4 0 6.4 2 6.4 6.5Zm-9.4 0c0 1.5.5 3.7 3 3.7 2.6 0 3-2.1 3-3.7s-.4-3.8-3-3.8c-2.5 0-3 2.2-3 3.8ZM38.7 76c2.8 0 9.6-.5 14.7-4.2v2.8h10.3V62.4L68 58l9.4 16.6h12.3L75.5 51l13.9-15H76.7l-13 14.7V22.3H53.4v4.5c-3.1-3.3-8.2-5.8-16.2-5.8-17.1 0-20.4 10.3-20.4 16 0 8 4.4 12.3 11.9 14.1l10.7 2.6c5.6 1.4 9.6 2.4 9.6 6.5C49 65.7 43.2 67 38 67c-9.7 0-11.3-5.6-11.3-8.5H16C16 65 19.4 76 38.7 76Zm7-31.2-13-3c-2.1-.6-5.5-1.5-5.5-5.6 0-4.6 5-6.2 9.2-6.2 9.7 0 10.6 5.5 10.8 7.9h6.2v9.7c-2.3-1.3-5-2.1-7.7-2.8Z"/>
</svg>
