<svg xmlns="http://www.w3.org/2000/svg" width="71" height="73" fill="none">
  <path fill="#FF2204" stroke="#FF2204" stroke-width=".3" d="m68 25.7-5.6-6 1.4-1.5a6.6 6.6 0 0 0 0-9l-2.8-3a5.8 5.8 0 0 0-8.6 0L51 7.5l-5.7-6a2 2 0 0 0-1.5-.6H28.4c-1.6 0-3.1.7-4.3 1.9l-1.7 1.7a6.6 6.6 0 0 0 0 9L34 25.9 2.8 58.6a6.6 6.6 0 0 0 0 9l2.8 3a5.8 5.8 0 0 0 8.6 0l31.1-32.8 5.7 6a5.8 5.8 0 0 0 8.5 0l8.6-9a6.6 6.6 0 0 0 0-9.1ZM55.3 9.1a2 2 0 0 1 2.9 0l2.9 3c.7.9.7 2.2 0 3l-1.5 1.6-5.7-6L55.2 9ZM11.3 67.7a2 2 0 0 1-2.8 0l-2.9-3c-.8-.9-.8-2.2 0-3l8.4-8.8 5.7 6-8.4 8.8Zm11.2-11.8-5.7-6 20-21.1 5.7 6-20 21Zm42.7-24.2-8.5 9a2 2 0 0 1-2.9 0l-28.5-30c-.8-.9-.8-2.2 0-3L27 5.8a2 2 0 0 1 1.4-.6H43l22.2 23.4c.8.8.8 2.2 0 3Z"/>
</svg>
