<svg xmlns="http://www.w3.org/2000/svg" viewBox="0 0 59 67">
  <path d="m58 18.2-.1-2.2c0-3.6-3-6.7-6.7-7-7.7-.3-13.7-2.9-18.7-7.8a4.3 4.3 0 0 0-6 0c-5 5-11 7.5-18.7 7.9A7.1 7.1 0 0 0 1 16v2.1C.8 26.1.6 36 4 44.8c1.8 4.8 4.5 9 8 12.6A42.3 42.3 0 0 0 29.6 67a4.8 4.8 0 0 0 1.6-.3 42.4 42.4 0 0 0 15.8-9.3c3.6-3.5 6.3-7.8 8.1-12.7a72.7 72.7 0 0 0 3-26.5Zm-6.7 25.2A32.5 32.5 0 0 1 29.2 63c-11-3.8-18-10.3-21.5-19.6-3-8.2-2.9-17.2-2.7-25V16c0-1.6 1.4-3 3-3 4.4-.3 8.2-1.2 11.7-2.7C23.2 9 26.4 7 29.3 4c.1-.1.3-.1.4 0A30.6 30.6 0 0 0 51 13c1.6.1 3 1.5 3 3.1v2.2c.2 7.9.3 16.9-2.7 25Z"/>
  <path d="M29.5 16.8a16.7 16.7 0 1 0 0 33.4 16.7 16.7 0 0 0 0-33.4Zm0 29.5a12.8 12.8 0 1 1 0-25.6 12.8 12.8 0 0 1 0 25.6Z"/>
  <path d="m34.3 28.3-7.8 7.8-2-2.1a2 2 0 0 0-2.8 2.7l3.5 3.5a2 2 0 0 0 2.7 0l9.2-9.1a2 2 0 0 0-2.8-2.8Z"/>
</svg>
