<svg xmlns="http://www.w3.org/2000/svg" viewBox="0 0 68 60">
  <path d="M48.3 32.6h-9.2c-2.6 0-4.6 2.1-4.6 4.6v7.1c0 2.5 2 4.6 4.6 4.6h9.2c2.5 0 4.6-2 4.6-4.6v-7c0-2.6-2-4.7-4.6-4.7Zm1.3 11.7c0 .7-.6 1.3-1.3 1.3h-9.2c-.7 0-1.3-.6-1.3-1.3v-7c0-.8.6-1.3 1.3-1.3h9.2c.7 0 1.3.6 1.3 1.2v7.1Z"/>
  <path d="M68 19.8c0-.3 0-.6-.2-.9L57.7 1.2c-.3-.6-.9-.9-1.5-.9H11.8c-.6 0-1.2.3-1.5.9L.3 18.9l-.3.9c0 4 2.4 7.4 5.8 8.9V58c0 1 .8 1.7 1.7 1.7h53c.9 0 1.7-.8 1.7-1.7V28.7c3.4-1.5 5.8-5 5.8-9ZM12.7 3.7h42.5l8 13.9H4.8l8-14Zm35.7 17.2a6.4 6.4 0 0 1-12.6 0h12.6Zm-16.2 0a6.4 6.4 0 0 1-12.6 0h12.6Zm-28.8 0h12.7a6.4 6.4 0 0 1-12.7 0ZM28 56.4h-9.6v-18c0-1.3 1-2.4 2.4-2.4h4.8c1.4 0 2.4 1 2.4 2.4v18Zm30.8 0H31.3v-18c0-3.2-2.5-5.8-5.7-5.8h-4.8a5.7 5.7 0 0 0-5.7 5.8v18H9V29.5h.7c3.3 0 6.3-1.7 8-4.3a9.7 9.7 0 0 0 16.2 0 9.7 9.7 0 0 0 16.2 0 9.7 9.7 0 0 0 8 4.3h.6v26.9Zm-.6-30.2a6.4 6.4 0 0 1-6.3-5.3h12.7c-.6 3-3.2 5.3-6.4 5.3Z"/>
</svg>
