<svg xmlns="http://www.w3.org/2000/svg" fill="none" viewBox="0 0 85 21">
  <path fill="#fff" fill-rule="evenodd" d="M45.7 5a83.4 83.4 0 0 1 3 7.9c.7.1.7-.6 1-1 1-2.9 2.6-7 3.4-9.8.5-1.3.6-1.7-.4-1.7s-1 .7-1.3 1.6C51 3.6 49.7 7 49.2 8.7c0 .2 0 .2-.3.2l-2.7-7.7c-.3-.4-.7-.5-1 .5L43.5 7 42.8 9c-.4-.6-.6-1.2-.8-1.8l-2-5.9c-.2-.4-.2-.6-.5-.8a2 2 0 0 0-1.1 0c-1 0-.4.9-.2 1.5 1.2 3.4 2.6 7.4 4 10.6v.2a.5.5 0 0 0 .7-.1L45.7 5ZM.2.6v.6C.4 2.2-.2 12 0 12.4c.5.3 1 .3 1.6.2.2-.3 0-.5 0-1l.2-5.2L2 5l.1-.5 1.9 3 1.3 2.3c.6 1.2.9.4 1 .1.4-.4 3-5.3 3.2-5.4.2.2.2 5 .2 5.4 0 2.7-.3 3 1.4 2.8.5 0 .5-.4.5-.8V9c-.2-2.3-.3-4.8-.3-7l.1-1.4a1 1 0 0 0-1.2-.2c-.3.2-.4.7-.7 1L6.1 7.2c-.3.6-.3.4-.6 0-.7-1-1.5-2.7-2.1-3.7l-1.2-2-.7-1C1.2.3.5.5.2.6ZM63.7 6.4a3.3 3.3 0 0 1 3-.6c1.6.7 1.8 3.1 1.1 4.3-.3.4-.7.8-1.2 1-.5.2-1 .2-1.6 0-.5 0-1-.2-1.3-.5V6.4Zm0-1.8v-4c0-.6-.2-.7-.7-.5-1.2.5-1.2.3-1 1.4v8.2c0 1.8-.3 2.2 2.3 3a5.4 5.4 0 0 0 4.2-.9c2.6-2.1 1.9-8.2-2.7-7.7a9 9 0 0 0-1.2.1l-.9.4ZM28.6 12.5a5 5 0 0 0 .1-2v-2c.2 0 .3.2.6.5l3.2 3.3a1.2 1.2 0 0 0 1 .3c.4 0 1 0 1.2-.3 0-.3-.7-.9-1-1.2l-1-1.1c-.8-.7-1.6-1.5-2.2-2.3l3.2-3c.2-.1.4-.2.4-.5-.7-.2-1.3-.2-2 0-.2.1-1.8 1.7-2.3 2l-1 1.1c-.2-.5 0-6.9-.2-7.3 0-.3-1.7.3-1.7.9l.1 1.3v8.9c0 .3 0 1.2.2 1.4h1.4ZM15.6 8.3c.6-.1 2.4.3 2.5.9v1.6c-.3.5-2.7 1.4-3.5-.3a1.8 1.8 0 0 1 0-1.4 1.6 1.6 0 0 1 1-.8Zm2.6-.6L16.6 7c-.7 0-1.3 0-2 .2-.6.2-1 .5-1.4 1a2.9 2.9 0 0 0 0 3.3c.2.5.7 1 1.3 1 1 .4 2 .4 3 0l.7-.3.4.4c.2.1 1 0 1.3-.2.3-.3.3-.2.2-.6-.3-.5-.4-1-.3-1.5V6.6c0-.5 0-1-.3-1.5-1-2-6.7-1.2-6.3.5.5 1.6 1.3-.6 3.8-.3 1.3.1 1.2 1.5 1.2 2.4ZM77 7.5h-4c0-.6.2-1 .5-1.4.4-.3 1-.5 1.4-.6a2 2 0 0 1 1.5.5 1.7 1.7 0 0 1 .6 1.5Zm-4.2 1.3c.3-.2 4.8 0 5.6 0 .9 0 .5-2.8-1-4a4 4 0 0 0-6 1.3c-.3.7-.5 1.5-.4 2.3a4.3 4.3 0 0 0 2 3.8c1.3 1 4.9.9 5.3-.6.6-1.8-.7-.8-1.2-.6l-1.2.3c-2.6.3-3.3-2.1-3.1-2.5ZM54.8 7.5c0-.6.2-1 .6-1.4a2 2 0 0 1 1.4-.6c1-.1 2.2.8 2 2h-4Zm-.2 1.2H60c.7 0 .6-.4.5-1a4 4 0 0 0-2-3.2 3.8 3.8 0 0 0-3.8 0c-.7.5-1.2 1-1.6 1.7-.3.7-.5 1.5-.4 2.2 0 .8 0 1.6.4 2.2.4.7 1 1.2 1.6 1.6 1.7 1 5 .6 5.3-.6 0-.4.3-1.3-.3-1-.6.3-1.3.6-2 .7a3 3 0 0 1-2.3-.6c-.4-.4-1.1-1.5-1-2ZM81.6 12.6c.3-.3.2-.5.2-1v-1.2c0-1.6-.3-4.3 1.5-4.7.4-.1.5.2 1 .1.3-.3.6-.6.7-1 0-.8-1.2-1-2.3-.4-.3.1-.6.7-.9.7 0-.4.1-.6-.2-1-.4 0-.8.1-1 .3-.6.3-.7.3-.6.9v5.9c0 1.6 0 1.5 1.6 1.4ZM23 12.5V8.5c0-1 .3-2.5 1.3-2.8.9-.4 1 .5 1.5 0 1.2-1.4-.5-2-1.5-1.5-1 .4-1 .8-1.2.9v-.6c0-.3-.1-.3-.2-.4a2 2 0 0 0-1.1.3c-.5.2-.7.2-.5.8v5.8c.2 1.5 0 1.6 1.6 1.4Z" clip-rule="evenodd"/>
  <path fill="#F9CC46" fill-rule="evenodd" d="M45.3 14.2c-2 .3-3.9.7-5.8 1.4l-1.8.7-3.5 1.3-3.7 1.2c-2.4.6-6 1.3-8.3.2-1.1-.5-1.2 1.2 1.3 1.8 1.4.3 3 .2 4.3-.2 1.2-.2 2.7-.7 3.8-1l3.8-1.2.8-.3 1.9-.6.9-.3 1.9-.5.9-.3c2.5-.6 5-.8 7.6-.8l2.3.2c1.2.2 1-.5.1-.9-2-.8-4.3-1-6.5-.7Z" clip-rule="evenodd"/>
</svg>
