<svg width="85" height="21" viewBox="0 0 85 21" fill="none" xmlns="http://www.w3.org/2000/svg">
<path fill-rule="evenodd" clip-rule="evenodd" d="M45.6954 5.08478C45.8999 5.29615 47.7398 10.3317 47.9323 10.9533C48.1239 11.6194 48.3945 12.2584 48.738 12.8556C49.3754 13.0048 49.4355 12.3459 49.6279 11.8237C50.6742 9.0013 52.2616 4.88584 53.0554 2.1132C53.6086 0.770391 53.6567 0.409822 52.6585 0.409822C51.6603 0.409822 51.7686 1.08123 51.3717 1.95156C51.023 3.6052 49.676 7.09899 49.183 8.7029C49.183 8.91426 49.183 8.91426 48.9304 8.91426C48.1006 6.52705 47.1385 3.6052 46.2005 1.24286C45.948 0.782824 45.503 0.683357 45.2024 1.71533C44.6973 3.35654 43.9998 5.30858 43.4586 6.90005C43.4586 6.90005 42.8092 8.91426 42.7611 9.01373C42.4171 8.44202 42.1653 7.81635 42.0155 7.16116C41.2698 5.25885 40.6204 3.20734 39.9831 1.30503C39.8267 0.944458 39.8267 0.733091 39.478 0.521723C39.1284 0.387793 38.7504 0.35344 38.3836 0.422256C37.3975 0.58389 38.0348 1.40449 38.2393 2.01373C39.4419 5.35831 40.7768 9.3743 42.1117 12.5572C42.1429 12.6361 42.1937 12.7051 42.2589 12.7572C42.3242 12.8093 42.4015 12.8427 42.4832 12.854C42.5649 12.8654 42.6481 12.8543 42.7243 12.8218C42.8005 12.7894 42.8671 12.7367 42.9174 12.6691C43.1098 12.2837 45.5511 5.08478 45.6954 5.08478Z" fill="white"/>
<path fill-rule="evenodd" clip-rule="evenodd" d="M0.191338 0.621504C0.141626 0.828628 0.158512 1.04686 0.239442 1.24317C0.443884 2.11351 -0.157417 12.0354 -0.00107876 12.4332C0.485705 12.6595 1.03147 12.712 1.55028 12.5824C1.7908 12.3213 1.69459 12.0727 1.69459 11.6624C1.69459 9.90925 1.8389 8.21831 1.8389 6.41546C1.89903 5.74406 1.94714 5.28403 1.94714 4.87372C1.94714 4.46342 1.94714 4.51316 2.04335 4.41369C2.13956 4.31422 3.71497 7.14904 3.8713 7.45987C4.17195 8.06911 4.76123 9.00161 5.15809 9.72275C5.75939 10.8542 6.06004 10.0833 6.20435 9.82222C6.55311 9.36218 9.24694 4.47586 9.43936 4.37639C9.61975 4.57532 9.61975 9.46165 9.61975 9.82222C9.61975 12.4954 9.3191 12.7565 10.9546 12.6446C11.4597 12.6446 11.5078 12.2343 11.4597 11.7743C11.4597 10.9039 11.4597 9.92168 11.4597 9.05134C11.3274 6.8382 11.2312 4.31422 11.2312 2.11351C11.2312 1.85241 11.3274 0.870172 11.3274 0.720971C11.1802 0.549445 10.9808 0.435004 10.7621 0.396571C10.5434 0.358137 10.3186 0.398012 10.1248 0.509603C9.77609 0.720971 9.67988 1.18101 9.42733 1.49184C8.41714 3.34442 7.0582 5.44566 6.10815 7.19877C5.75939 7.82044 5.75939 7.60907 5.45874 7.19877C4.80933 6.21653 3.96751 4.52559 3.37824 3.54335L2.17563 1.49184C2.00847 1.13533 1.79394 0.804718 1.53825 0.509603C1.20152 0.260935 0.540093 0.45987 0.191338 0.621504Z" fill="white"/>
<path fill-rule="evenodd" clip-rule="evenodd" d="M63.6508 6.37816C64.0764 6.01909 64.5814 5.77443 65.1206 5.66597C65.6599 5.5575 66.2167 5.5886 66.7415 5.75649C68.3289 6.47763 68.5334 8.90214 67.8359 10.0833C67.5388 10.5436 67.1109 10.8973 66.6111 11.0955C66.1114 11.2937 65.5645 11.3267 65.0458 11.1899C64.5434 11.0874 64.0679 10.8754 63.6508 10.5682V6.37816ZM63.6508 4.62505C63.5758 3.27092 63.5758 1.91346 63.6508 0.559332C63.6508 -0.000170121 63.4584 -0.0996372 62.9533 0.099297C61.7507 0.621499 61.7507 0.410132 61.919 1.54157C62.0153 2.11351 61.919 8.7405 61.919 9.67301C61.919 11.5132 61.6665 11.9359 64.2521 12.7068C64.9883 12.8664 65.7482 12.8705 66.486 12.7188C67.2238 12.5671 67.9243 12.2627 68.5454 11.824C71.0829 9.67301 70.3854 3.60551 65.7554 4.06555C65.3518 4.08813 64.95 4.13797 64.5528 4.21475C64.3964 4.26448 63.8071 4.62505 63.735 4.62505H63.6508Z" fill="white"/>
<path fill-rule="evenodd" clip-rule="evenodd" d="M28.5831 12.5451C28.7712 11.8967 28.8244 11.2145 28.7394 10.5433C28.6902 9.83967 28.6902 9.13327 28.7394 8.42963C28.8837 8.42963 29.0401 8.69073 29.3407 9.00157C29.6414 9.3124 32.1187 11.9856 32.5156 12.284C32.6541 12.4172 32.821 12.5148 33.0028 12.5688C33.1846 12.6228 33.3761 12.6317 33.5619 12.5948C33.9106 12.5948 34.4638 12.5948 34.6562 12.3462C34.6562 11.9856 33.9587 11.4136 33.6581 11.1028C33.3574 10.792 32.9726 10.3941 32.6238 9.97137C31.8589 9.27538 31.1435 8.52328 30.4832 7.72093C30.4832 7.60903 33.2131 5.23425 33.7182 4.78665C33.9106 4.57528 34.1151 4.52555 34.067 4.21471C33.448 4.0173 32.7858 4.0173 32.1668 4.21471C31.9263 4.32661 30.2788 5.86835 29.8338 6.27866C29.6895 6.42786 28.8356 7.36036 28.7394 7.31063C28.5951 6.83816 28.7394 0.410093 28.6432 0.049525C28.547 -0.311043 26.8513 0.260893 26.8994 0.882562C26.9937 1.31936 27.0421 1.7654 27.0438 2.21294V11.1028C27.0438 11.4136 26.9475 12.3462 27.152 12.4954C27.6199 12.619 28.1082 12.636 28.5831 12.5451Z" fill="white"/>
<path fill-rule="evenodd" clip-rule="evenodd" d="M15.63 8.33021C16.1832 8.18101 18.0352 8.64105 18.1194 9.15082C18.1675 9.70091 18.1675 10.2544 18.1194 10.8045C17.7706 11.2645 15.3774 12.1846 14.5837 10.5434C14.4768 10.3102 14.4213 10.0554 14.4213 9.79736C14.4213 9.53931 14.4768 9.2845 14.5837 9.05135C14.6992 8.86179 14.8521 8.69956 15.0324 8.57529C15.2127 8.45102 15.4163 8.36751 15.63 8.33021ZM18.1675 7.70854C17.7002 7.38848 17.1775 7.16473 16.6282 7.04958C15.9436 6.9712 15.2509 7.02175 14.5837 7.19878C14.022 7.36511 13.5267 7.71342 13.1707 8.19247C12.8146 8.67151 12.6167 9.25602 12.6059 9.86005C12.5952 10.4641 12.7721 11.0557 13.1108 11.548C13.4495 12.0403 13.9321 12.4072 14.4875 12.5949C15.4387 12.9302 16.4706 12.9302 17.4219 12.5949C17.6263 12.4954 18.0232 12.2343 18.1675 12.1846C18.3118 12.1348 18.3719 12.5451 18.5643 12.6446C18.7568 12.7441 19.6587 12.6446 19.9113 12.3959C20.1638 12.1473 20.2119 12.1846 20.0556 11.824C19.8229 11.3482 19.7388 10.8095 19.815 10.2823V6.57711C19.878 6.05248 19.754 5.52212 19.4663 5.0851C18.5162 3.13306 12.7919 3.90393 13.2488 5.55757C13.7058 7.21121 14.4514 4.98563 16.9769 5.29647C18.3358 5.44567 18.1915 6.78847 18.1915 7.70854H18.1675Z" fill="white"/>
<path fill-rule="evenodd" clip-rule="evenodd" d="M77.0375 7.46014H72.9125C72.9678 6.94963 73.1931 6.4749 73.5499 6.11734C73.9393 5.76426 74.4286 5.55059 74.9449 5.5081C75.2139 5.48513 75.4845 5.51844 75.7407 5.60602C75.997 5.69361 76.2335 5.83368 76.4362 6.01787C76.6402 6.19143 76.8012 6.41284 76.9058 6.6637C77.0104 6.91456 77.0555 7.18761 77.0375 7.46014ZM72.8043 8.79052C73.1049 8.64131 77.6147 8.79052 78.4325 8.79052C79.2502 8.79052 78.8774 6.01787 77.3862 4.88643C76.777 4.41685 76.0517 4.13499 75.2942 4.07338C74.5366 4.01177 73.7776 4.17292 73.1049 4.53824C72.4321 4.90356 71.873 5.45815 71.4922 6.13796C71.1113 6.81778 70.9241 7.59511 70.9523 8.38021C70.9237 9.14274 71.0953 9.89904 71.4489 10.5689C71.8025 11.2387 72.3249 11.7971 72.9606 12.1848C74.2955 13.1173 77.8793 13.0676 78.3242 11.6253C78.8774 9.77275 77.5786 10.8047 77.1216 11.0037C76.7373 11.1665 76.3323 11.2712 75.919 11.3145C73.2613 11.6253 72.6119 9.20082 72.8043 8.79052Z" fill="white"/>
<path fill-rule="evenodd" clip-rule="evenodd" d="M54.7551 7.4591C54.7973 6.92806 55.0308 6.43275 55.4094 6.07124C55.788 5.70974 56.2841 5.50839 56.7995 5.50706C57.8337 5.39516 59.0363 6.32766 58.8319 7.4591H54.7551ZM54.5506 8.70244C54.8032 8.70244 59.4813 8.70244 60.1307 8.70244C60.7801 8.70244 60.6719 8.29214 60.6238 7.78237C60.5886 7.09201 60.3807 6.42292 60.0202 5.84065C59.6598 5.25838 59.1592 4.78289 58.5676 4.46075C57.9759 4.13862 57.3135 3.98089 56.6452 4.00302C55.9769 4.02515 55.3256 4.22638 54.7551 4.58699C54.1136 4.9788 53.589 5.54585 53.2389 6.22582C52.8889 6.9058 52.7269 7.67238 52.7708 8.44134C52.7197 9.20041 52.8851 9.9583 53.2463 10.6213C53.6075 11.2842 54.1488 11.8231 54.8032 12.1714C56.4989 13.2531 59.8301 12.793 60.1307 11.5621C60.1307 11.2016 60.3712 10.3188 59.8301 10.5301C59.1764 10.9122 58.4648 11.1771 57.7255 11.3135C57.3314 11.3679 56.9308 11.341 56.5469 11.2343C56.1629 11.1276 55.8032 10.9432 55.4887 10.6918C55.0557 10.3312 54.3582 9.24951 54.5506 8.70244Z" fill="white"/>
<path fill-rule="evenodd" clip-rule="evenodd" d="M81.5571 12.5938C81.8577 12.2829 81.8096 12.1337 81.8096 11.6737V10.4304C81.8096 8.78914 81.509 6.06623 83.349 5.65593C83.7458 5.55646 83.842 5.9046 84.3471 5.80513C84.645 5.52884 84.8687 5.17763 84.9965 4.78559C84.9965 4.00229 83.7939 3.85309 82.6996 4.36285C82.3508 4.52449 82.0622 5.08399 81.8096 5.13373C81.8096 4.67369 81.9059 4.47476 81.6052 4.06445C81.2197 4.10267 80.8466 4.2256 80.5108 4.42502C80.0178 4.67369 79.9216 4.67369 80.0178 5.29536C80.114 5.91703 80.0178 10.1817 80.0178 11.2012C80.0659 12.7554 80.0659 12.7057 81.5571 12.5938Z" fill="white"/>
<path fill-rule="evenodd" clip-rule="evenodd" d="M22.9207 12.545V12.4456C23.0603 11.1828 23.0965 9.91005 23.0289 8.64095C23.0289 7.65872 23.2694 6.06724 24.3157 5.75641C25.1575 5.44557 25.2056 6.26618 25.7588 5.75641C27.0456 4.36387 25.3138 3.80436 24.2676 4.2644C23.2213 4.72444 23.3656 5.085 23.065 5.18447C23.0408 4.98216 23.0408 4.77755 23.065 4.57523C23.065 4.31413 22.9567 4.31413 22.8605 4.16493C22.4749 4.16169 22.096 4.2693 21.7662 4.47577C21.2731 4.6747 21.1168 4.72444 21.2731 5.34611C21.3789 6.29932 21.4111 7.25972 21.3693 8.21822V11.053C21.4775 12.5948 21.2731 12.7067 22.9207 12.545Z" fill="white"/>
<path fill-rule="evenodd" clip-rule="evenodd" d="M45.3475 14.1987C43.3622 14.4519 41.4102 14.9314 39.5269 15.6285C38.9376 15.8896 38.3243 16.0388 37.735 16.2999C36.5324 16.76 35.402 17.1703 34.2114 17.6427C33.8145 17.7919 30.9764 18.6623 30.4833 18.7742C28.0781 19.3834 24.4703 20.1046 22.1733 19.0228C21.079 18.4633 20.9707 20.204 23.4601 20.8257C24.9159 21.0893 26.4098 21.0214 27.8376 20.6268C29.0402 20.3657 30.4833 19.9056 31.6258 19.545C32.7683 19.1845 34.1152 18.7742 35.3539 18.4136C35.6545 18.3017 35.8951 18.2022 36.2438 18.1028L38.0838 17.5308C38.4325 17.4314 38.6851 17.2822 38.9857 17.1703L40.8859 16.7102C41.2346 16.6108 41.4872 16.5113 41.7878 16.3994C44.3057 15.8441 46.8739 15.569 49.4484 15.5788C50.0858 15.5788 51.0358 15.7404 51.6852 15.8399C52.8878 15.9891 52.6233 15.3301 51.8295 14.9074C49.7658 14.0899 47.531 13.8455 45.3475 14.1987Z" fill="#F9CC46"/>
</svg>
