<svg xmlns="http://www.w3.org/2000/svg" width="120" height="114" fill="none">
  <path fill="#DADADA" d="M90.6 59.4a29.4 29.4 0 1 0 0-58.8 29.4 29.4 0 0 0 0 58.8Zm0-54a24.7 24.7 0 1 1 0 49.4 24.7 24.7 0 0 1 0-49.5Z"/>
  <path fill="#DADADA" d="M78.2 42h5.2a2.3 2.3 0 0 0 4 1.6l2.4-2.3a2.3 2.3 0 0 0 0-3.4l-2.4-2.3a2.3 2.3 0 0 0-4 1.7h-5.2a.8.8 0 0 1-.6-.5c-.1-.1-.2-.4 0-.7l2-3.3a2.3 2.3 0 0 0-4-2.5l-2 3.3a5.5 5.5 0 0 0 4.6 8.3ZM100.2 33.8a2.3 2.3 0 0 0 1.9-.2l1.5 2.5c.2.3.1.6 0 .7 0 .2-.2.5-.6.5h-6a2.3 2.3 0 1 0 0 4.6h6a5.5 5.5 0 0 0 4.6-8.3l-1.4-2.4a2.3 2.3 0 0 0-.7-4.2l-3.2-.8c-1.2-.4-2.5.3-2.9 1.6l-.8 3.2c-.4 1.2.4 2.5 1.6 2.8ZM80.2 24.4A2.3 2.3 0 0 0 83 26l3.2-.7A2.3 2.3 0 0 0 87 21l3-5 .7-.3c.2 0 .5 0 .7.4l3.7 6a2.3 2.3 0 1 0 4-2.4l-3.7-6a5.4 5.4 0 0 0-4.7-2.7c-1.9 0-3.6 1-4.6 2.6l-3 5a2.3 2.3 0 0 0-3.6 2.5l.8 3.2Z"/>
  <path fill="#DADADA" d="M119 64.9c-.7-.5-1.5-.6-2.2-.3l-27.9 11v-8.8a2.3 2.3 0 0 0-3.2-2.2l-31 12.2c-1 .4-1.6 1.3-1.6 2.2v16.8h-2l-3-18.1-3.5-20-3.4-20.2-3.4-20c-.2-1.2-1.2-2-2.3-2H22.4c-1.2 0-2.2.8-2.4 2l-3.4 20-3.4 20.1-3.4 20.1-3.1 18.1H2.3c-1.3 0-2.3 1-2.3 2.4V111c0 1.3 1 2.4 2.3 2.4h16a2.3 2.3 0 1 0 0-4.7H4.7v-8.2H53v8.2H39.5a2.3 2.3 0 0 0 0 4.7h78.2c1.3 0 2.3-1 2.3-2.4V66.8c0-.8-.4-1.5-1-2ZM17.5 60.4h22.8L43 75.7H14.9l2.6-15.3Zm3.4-20.1h16l2.6 15.4H18.3l2.6-15.4Zm3.4-20.1h9.2L36 35.6H21.7l2.6-15.4ZM11.4 95.8l2.7-15.4h29.7l2.6 15.4h-35Zm46.4-15.2 26.4-10.4v14.4H69c-1.3 0-2.4 1-2.4 2.3v21.8h-8.8v-28Zm13.5 8.7h13v19.4h-13V89.3ZM89 80.6l26.4-10.4v14.4h-16c-1.3 0-2.4 1-2.4 2.3v21.8h-8v-28Zm12.7 28V89.4h13v19.4h-13Z"/>
  <path fill="#DADADA" d="M31.1 110.1c-.4-.9-1.3-1.5-2.3-1.4-1 0-1.8.7-2 1.7-.4 1 0 2 .8 2.5.8.6 1.9.6 2.7 0 .9-.5 1.2-1.7.8-2.8Z"/>
</svg>
