<svg xmlns="http://www.w3.org/2000/svg" width="94" height="82" fill="none">
  <path stroke="#DADADA" stroke-linecap="round" stroke-linejoin="round" stroke-miterlimit="10" stroke-width="3" d="M33.58 51.56A1.5 1.5 0 0 0 34 54.5h15.27c6.43 0 12.58-4.9 12.22-11.36-.03-6-5.38-10.64-11.57-10.64-6.55 0-12.22 4.98-12.22 11.32v2.21a5.4 5.4 0 0 1-4.12 5.53Z"/>
  <mask id="a" width="88" height="63" x="0" y="19.75" fill="#000" maskUnits="userSpaceOnUse">
    <path fill="#fff" d="M0 19.75h88v63H0z"/>
    <path d="M57.06 24.31a63.24 63.24 0 0 0-13.44-1.56C21.13 22.75 3 35.25 3 50.88c0 3.12.63 6.24 2.19 9.06A11.45 11.45 0 0 0 22.06 64c7.5-5.31 18.13 0 18.13 9.38V79h3.44c22.5 0 40.62-12.5 40.62-28.13 0-6.87-3.44-13.12-9.06-17.8"/>
  </mask>
  <path fill="#DADADA" d="M56.43 27.25a3 3 0 1 0 1.26-5.87l-1.26 5.87ZM5.2 59.94l2.68-1.34a2.99 2.99 0 0 0-.06-.12l-2.62 1.46ZM22.06 64l-1.73-2.45-.02.02L22.06 64ZM40.2 79h-3a3 3 0 0 0 3 3v-3ZM77.1 30.76a3 3 0 0 0-3.84 4.6l3.84-4.6Zm-19.42-9.38a66.22 66.22 0 0 0-14.06-1.63v6c4.4 0 8.56.59 12.8 1.5l1.26-5.87Zm-14.06-1.63c-11.78 0-22.55 3.27-30.46 8.74C5.27 33.95 0 41.8 0 50.88h6c0-6.56 3.8-12.77 10.58-17.46 6.78-4.69 16.32-7.67 27.05-7.67v-6ZM0 50.88c0 3.51.7 7.16 2.57 10.51l5.24-2.9A15.5 15.5 0 0 1 6 50.86H0Zm2.5 10.4c3.98 7.95 14.23 10.27 21.32 5.15l-3.51-4.86A8.45 8.45 0 0 1 7.87 58.6L2.5 61.28Zm21.3 5.17c5.54-3.93 13.39.03 13.39 6.92h6c0-11.85-13.41-18.51-22.86-11.82l3.47 4.9Zm13.39 6.92V79h6v-5.63h-6Zm3 8.63H43.63v-6H40.19v6Zm3.44 0c11.77 0 22.54-3.27 30.45-8.74 7.9-5.46 13.17-13.32 13.17-22.39h-6c0 6.56-3.8 12.77-10.58 17.46C63.89 73.02 54.35 76 43.62 76v6Zm43.62-31.13c0-7.93-3.98-14.98-10.14-20.11l-3.84 4.6c5.08 4.25 7.98 9.7 7.98 15.52h6Z" mask="url(#a)"/>
  <mask id="b" width="43" height="41" x="51" y="0" fill="#000" maskUnits="userSpaceOnUse">
    <path fill="#fff" d="M51 0h43v41H51z"/>
    <path d="m54 31.44 30.63-27.5a3.4 3.4 0 0 1 4.68 0 3.02 3.02 0 0 1 0 4.37L62.12 37.37"/>
  </mask>
  <path fill="#DADADA" d="M52 29.2a3 3 0 1 0 4 4.47l-4-4.46ZM84.63 3.95l2 2.23.12-.11-2.13-2.12ZM89.3 8.3 87.2 6.2l-.07.07 2.2 2.05ZM59.93 35.33a3 3 0 0 0 4.39 4.1l-4.39-4.1ZM56 33.67l30.63-27.5-4-4.46L52 29.2l4 4.46ZM86.75 6.06s.06-.06.22-.06c.15 0 .22.06.22.06l4.24-4.24a6.4 6.4 0 0 0-8.93 0l4.25 4.24Zm.44 0c.05.04.06.07.06.08V6.1s-.01.04-.06.08l4.24 4.24a6.02 6.02 0 0 0 0-8.61L87.2 6.06Zm-.07.2L59.93 35.33l4.39 4.1L91.5 10.35l-4.38-4.1Z" mask="url(#b)"/>
</svg>
