<svg xmlns="http://www.w3.org/2000/svg" width="108" height="95" fill="none">
  <path stroke="#DADADA" stroke-linecap="round" stroke-linejoin="round" stroke-miterlimit="10" stroke-width="6" d="M42.2 57.1A3 3 0 0 0 43 63h15.2c7.1 0 14.2-5.4 13.8-13 0-6.8-6.2-12-13-12-7.3 0-13.8 5.5-13.8 12.8V53c0 2.2-1 3.5-3 4.1Z"/>
  <mask id="a" width="94" height="69" x="0" y="26.8" fill="#000" maskUnits="userSpaceOnUse">
    <path fill="#fff" d="M0 26.8h94v69H0z"/>
    <path d="M60 34.3c-4.3-1-8.7-1.5-13.4-1.5C24.1 32.8 6 45.3 6 60.8c0 3.2.6 6.3 2.2 9.1A11.5 11.5 0 0 0 25 74c7.5-5.3 18 0 18 9.4V89h3.5c22.5 0 40.6-12.5 40.6-28.1 0-6.9-3.4-13.1-9-17.8"/>
  </mask>
  <path fill="#DADADA" d="M58.8 40.2a6 6 0 0 0 2.5-11.8l-2.5 11.8ZM8.2 69.9l5.4-2.6-.2-.3-5.2 3ZM25 74l-3.5-4.9L25 74Zm18 15h-6a6 6 0 0 0 6 6v-6Zm39-50.5a6 6 0 1 0-7.8 9.2l7.7-9.2Zm-20.8-10c-4.6-1-9.4-1.8-14.7-1.8v12c4.2 0 8.1.6 12.2 1.5l2.5-11.8Zm-14.7-1.8A57 57 0 0 0 14.5 36 30.6 30.6 0 0 0 0 61h12c0-5.3 3-10.7 9.3-15a45 45 0 0 1 25.3-7.1v-12ZM0 61c0 3.9.8 8 3 12L13.3 67c-1-1.7-1.4-3.8-1.4-6.1H0Zm2.8 11.7A17.5 17.5 0 0 0 28.6 79l-7-9.8c-2.8 2-6.6 1-8-1.8L2.8 72.6ZM28.5 79c3.6-2.6 8.7 0 8.7 4.5h12A17.5 17.5 0 0 0 21.6 69l7 9.8Zm8.7 4.5V89h12v-5.6h-12Zm6 11.6H46.7V83H43.1v12Zm3.4 0a57 57 0 0 0 32.2-9.3A30.6 30.6 0 0 0 93.3 61h-12c0 5.3-3.1 10.7-9.3 15A45 45 0 0 1 46.6 83v12Zm46.6-34.1c0-9-4.5-16.9-11.2-22.4l-7.7 9.2c4.6 3.8 7 8.4 7 13.2h12Z" mask="url(#a)"/>
  <mask id="b" width="49" height="47" x="59" y="0" fill="#000" maskUnits="userSpaceOnUse">
    <path fill="#fff" d="M59 0h49v47H59z"/>
    <path d="M65 34.4 95.6 7a3.4 3.4 0 0 1 4.7 0 3 3 0 0 1 0 4.4l-27.2 29"/>
  </mask>
  <path fill="#DADADA" d="M61 30a6 6 0 0 0 8 8.9l-8-9ZM95.6 7l4 4.4.3-.2-4.3-4.3Zm4.7 4.3-4.2-4.2-.2.1 4.4 4.1Zm-31.6 25a6 6 0 1 0 8.8 8.2l-8.8-8.2Zm.3 2.6 30.6-27.5-8-9L61 30l8 8.9ZM100 11.2c-.7.6-1.4.8-2 .8-.5 0-1.2-.2-1.8-.8l8.5-8.5a9.4 9.4 0 0 0-13.2 0l8.5 8.5Zm-3.8 0a3 3 0 0 1-.8-2c0-1 .3-1.7.8-2.1l8.5 8.5a9 9 0 0 0 0-13L96 11.3Zm-.2-4-27.2 29 8.8 8.3 27.2-29-8.8-8.3Z" mask="url(#b)"/>
</svg>
