<svg xmlns="http://www.w3.org/2000/svg" fill="none" viewBox="0 0 104 120">
  <path stroke="#DADADA" stroke-width="6" d="m52.046 101.131-.044.031-.045-.031a72.883 72.883 0 0 1-4.395-3.31 90.857 90.857 0 0 1-13.253-13.267c-9.194-11.352-17.997-27.986-17.392-49.778 16.82-3.875 30.32-12.467 35.107-15.795.394.268.85.572 1.361.907a118.528 118.528 0 0 0 8.424 5.012c6.549 3.545 15.448 7.59 25.277 9.872.606 21.794-8.197 38.43-17.392 49.782A90.857 90.857 0 0 1 56.442 97.82a72.91 72.91 0 0 1-4.396 3.311Z"/>
  <path fill="#DADADA" d="M103.431 24.641a3.19 3.19 0 0 0-2.558-2.946C75.653 16.647 54.12.79 53.908.632a3.186 3.186 0 0 0-3.836.02c-.849.646-21.087 15.87-46.94 21.045a3.191 3.191 0 0 0-2.56 2.946c-2.072 36.264 14.943 62.352 29.582 77.85 5.494 5.817 10.65 10.118 14.007 12.7a90.505 90.505 0 0 0 4.447 3.22c1.802 1.219 2.32 1.568 3.315 1.586l.122.001c.98 0 1.573-.396 3.134-1.442a84.832 84.832 0 0 0 3.92-2.803c2.973-2.243 7.568-5.978 12.59-11.033 9.432-9.496 16.942-20.07 22.316-31.425 7.227-15.264 10.399-31.634 9.426-48.656ZM75.494 90.882c-9.684 12.144-19.693 19.542-23.492 22.125-3.8-2.583-13.808-9.98-23.496-22.13C13.352 71.867 6.066 50.533 6.831 27.428c21.828-4.93 39.486-16.333 45.187-20.32 5.78 3.981 23.74 15.46 45.154 20.318.766 23.108-6.52 44.446-21.678 63.455Z"/>
</svg>
