<svg xmlns="http://www.w3.org/2000/svg" width="80" height="46" fill="none">
  <path stroke="#FFC800" stroke-width="3" d="m78.4 25 .1.5V38c0 .6-.4 1-1 1h-4l-.4 1a6 6 0 0 1-5.6 4 6 6 0 0 1-5.6-4l-.4-1h-23l-.4 1a6 6 0 0 1-5.6 4 6 6 0 0 1-5.6-4l-.4-1h-9a1 1 0 0 1-1-1v-9h-4a1 1 0 0 1 0-2h4v-8h-9a1 1 0 0 1 0-2h9V9h-14a1 1 0 0 1 0-2h14V3c0-.6.4-1 1-1h35c.6 0 1 .4 1 1v9H70c.4 0 .7.2.9.5L78.4 25Zm-19.9.5V27H77.2L76 24.7l-6-10-.5-.7H58.5v11.5ZM28.5 38a4 4 0 1 0 8 0 4 4 0 0 0-8 0Zm35 0a4 4 0 0 0 8 0 4 4 0 0 0-8 0Z"/>
</svg>
