<svg xmlns="http://www.w3.org/2000/svg" width="60" height="70" fill="none">
  <path fill="#FFC800" d="M30 0C13.5 0 0 13.3 0 29.8V40c0 7 5.5 12.5 12.5 12.5 1.5 0 2.5-1 2.5-2.5V30c0-1.5-1-2.5-2.5-2.5-2.8 0-5.5 1-7.5 2.5v-.5A24.8 24.8 0 0 1 30 5c13.8 0 25 11 25 24.8v.2c-2-1.5-4.8-2.5-7.5-2.5-1.5 0-2.5 1-2.5 2.5v20c0 1.5 1 2.5 2.5 2.5 1.8 0 3.5-.5 5-1-2.5 5.3-7 9.3-12.5 11.5v-.5c0-1.5-1-2.5-2.5-2.5H30c-1.5 0-2.5 1-2.5 2.5v5c0 1.5 1 2.5 2.5 2.5 16.5 0 30-13 30-29V29.7A29.9 29.9 0 0 0 30 0Z"/>
</svg>
