<svg width="92" height="38" viewBox="0 0 92 38" fill="none" xmlns="http://www.w3.org/2000/svg">
<g clip-path="url(#clip0_1019:2)">
<path fill-rule="evenodd" clip-rule="evenodd" d="M28.6354 3.1145L16.8519 6.0969V4.1212H13.7803V6.8742L3.66699 9.4339V12.3808L6.77779 11.5935V18.2929L11.7888 16.9996V10.3252L28.6354 6.0614L44.3296 9.8959V6.9489L28.6354 3.1145Z" fill="white"/>
<path fill-rule="evenodd" clip-rule="evenodd" d="M6.77734 18.293L11.7883 16.9998V23.6768L6.77734 24.9598V18.293Z" fill="#ED0008"/>
<path fill-rule="evenodd" clip-rule="evenodd" d="M5.23399 30.8208V32.3586H3.69629V33.8963H31.1527V30.8208H11.7886V23.6768L6.77759 24.9598V30.8208H5.23399Z" fill="black"/>
<path fill-rule="evenodd" clip-rule="evenodd" d="M5.59825 31.1845V32.7223H4.06055V33.5326H30.7895V31.1845H11.4254V23.7703L7.14185 24.8671V31.1845H5.59825Z" fill="#FFC800"/>
<path d="M20.4304 12.0747C16.3207 12.0747 14.6769 13.9591 14.6769 16.5051C14.6769 19.5522 17.2228 20.1135 20.1698 20.8553C21.2523 21.1158 21.9138 21.3964 21.9138 22.1783C21.9138 23.0403 21.3524 23.4212 20.0896 23.4212C19.2677 23.4212 17.3231 23.3611 15.118 22.5592L14.2158 25.3056C16 26.1476 18.3254 26.4482 19.7087 26.4482C24.2593 26.4482 26.1036 24.7042 26.1036 22.1783C26.1036 18.7302 23.1367 18.0887 21.3325 17.6477C19.9693 17.327 18.8466 17.0463 18.8466 16.3046C18.8466 15.5428 19.3478 15.1218 20.3101 15.1218C21.3524 15.1218 22.9362 15.2622 24.3194 15.7834L25.2616 13.1371C23.7781 12.3754 21.9539 12.0747 20.4304 12.0747V12.0747ZM29.4915 13.6216C29.2709 14.2264 28.87 15.5596 28.6495 16.1643L27.0257 16.6453V18.7302H28.3688V23.0838C28.3688 24.604 28.8901 26.4082 32.3982 26.4082C33.2603 26.4082 34.5433 26.2278 35.4854 25.8268L35.0645 23.3644C34.3629 23.4813 33.7213 23.5615 33.4607 23.5615C32.4984 23.5615 32.1576 23.2441 32.1576 22.1248V18.7302H34.9442V16.3046H32.1576V13.3978L29.4915 13.6216V13.6216ZM46.2505 19.6524C46.2505 16.9862 44.5065 16.0841 41.9204 16.0841C40.3968 16.0841 38.4523 16.4249 37.2495 16.926L37.8108 19.2514C38.6729 18.9709 40.0561 18.7903 40.9983 18.7903C42.2211 18.7903 42.6221 19.2114 42.6221 20.0734V20.2337C41.3992 20.354 39.9357 20.4141 38.9335 20.5947C36.8886 20.8953 36.1671 22.1984 36.1671 23.5214C36.1671 24.6841 36.7885 26.4482 39.3946 26.4482C39.9158 26.4482 41.5195 26.4082 42.8025 25.2455C42.8225 25.2655 42.8626 25.2655 42.8626 25.2855C43.023 26.2278 43.7848 26.4482 44.6869 26.4482C45.7894 26.4482 46.9121 26.2077 47.6539 25.8669C47.6137 25.1452 47.5536 24.4436 47.4934 23.7419H46.2505V19.6524V19.6524ZM41.1185 13.3978C41.1185 12.4957 40.5372 11.8542 39.2943 11.8542C38.1116 11.8542 37.5904 12.4957 37.5904 13.3978C37.5904 14.2598 38.1116 14.9414 39.2943 14.9414C40.5372 14.9414 41.1185 14.2598 41.1185 13.3978ZM45.7293 13.3978C45.7293 12.4957 45.1881 11.8542 43.9452 11.8542C42.7825 11.8542 42.2211 12.4957 42.2211 13.3978C42.2211 14.2598 42.7624 14.9414 43.9452 14.9414C45.1881 14.9414 45.7293 14.2598 45.7293 13.3978ZM42.602 21.9979V23.5615C42.1811 23.9223 41.4994 24.1228 41.0986 24.1228C40.437 24.1228 40.1563 23.8222 40.1163 23.1005C40.1163 22.0379 41.4193 22.1382 42.602 21.9979ZM52.8058 18.2892C52.886 17.8281 52.9862 16.7857 52.9862 16.3046H49.1974V26.2077H53.0264V20.2939L56.3341 20.7149C56.8553 19.9731 57.4968 17.8883 57.4968 16.8258C57.4968 16.3847 57.3765 16.0239 56.9154 16.0239C55.7126 16.0239 54.0487 17.1064 52.886 18.3493L52.8058 18.2892V18.2892ZM62.0675 19.1712C62.1276 18.209 62.1677 17.0865 62.1878 16.1442C62.1878 14.7008 62.2077 13.2575 62.2077 11.8342H58.2987V26.2077H62.2077V23.0804L62.8693 22.3788C63.551 23.6617 64.2727 24.9447 64.9944 26.2077H69.2241C68.4624 24.8846 66.8786 22.3387 66.1169 21.0156C65.9766 20.8151 65.5957 20.4342 65.3552 20.1535L69.0037 16.3046H64.7137L62.1878 19.1913C62.1476 19.1913 62.1076 19.1913 62.0675 19.1712V19.1712ZM75.2181 16.044C71.1888 16.044 70.0259 18.7704 70.0259 21.2762C70.0259 23.9625 71.0684 26.4082 75.3986 26.4082C76.8018 26.4082 78.5659 26.1476 79.9893 25.3858L79.2676 23.0403C78.2852 23.341 77.0624 23.6016 76.0801 23.6016C74.6367 23.6016 73.875 23.1005 73.8549 21.8375H80.1897V20.9554C80.1897 18.7503 79.7086 16.044 75.2181 16.044ZM75.4185 18.3493C76.461 18.3493 76.7417 19.071 76.7617 20.0333H73.895C73.9753 19.1513 74.316 18.3493 75.4185 18.3493Z" fill="white"/>
</g>
<defs>
<clipPath id="clip0_1019:2">
<rect width="92" height="38" fill="white"/>
</clipPath>
</defs>
</svg>
